<svg width="70" height="70" viewBox="0 0 70 70" fill="none" xmlns="http://www.w3.org/2000/svg">
<path d="M35.0006 64.1667C51.109 64.1667 64.1673 51.1083 64.1673 35C64.1673 18.8917 51.109 5.83334 35.0006 5.83334C18.8923 5.83334 5.83398 18.8917 5.83398 35C5.83398 51.1083 18.8923 64.1667 35.0006 64.1667Z" stroke="white" stroke-width="5" stroke-linecap="round" stroke-linejoin="round"/>
<path d="M35 37.9167C39.8325 37.9167 43.75 33.9991 43.75 29.1667C43.75 24.3342 39.8325 20.4167 35 20.4167C30.1675 20.4167 26.25 24.3342 26.25 29.1667C26.25 33.9991 30.1675 37.9167 35 37.9167Z" stroke="white" stroke-width="5" stroke-linecap="round" stroke-linejoin="round"/>
<path d="M20.416 60.2642V55.4167C20.416 53.8696 21.0306 52.3859 22.1246 51.2919C23.2185 50.1979 24.7023 49.5833 26.2493 49.5833H43.7493C45.2964 49.5833 46.7802 50.1979 47.8741 51.2919C48.9681 52.3859 49.5827 53.8696 49.5827 55.4167V60.2642" stroke="white" stroke-width="5" stroke-linecap="round" stroke-linejoin="round"/>
</svg>
