<svg width="30" height="20" viewBox="0 0 30 20" fill="none" xmlns="http://www.w3.org/2000/svg">
<path d="M15.0005 0C20.8508 0 25.7234 3.03625 29.5445 8.9425L29.8445 9.41625L29.9059 9.54125L29.9468 9.645L29.9659 9.71375L29.985 9.81625L30 9.94125V10.0787L29.9809 10.2175C29.9719 10.2639 29.9601 10.3098 29.9454 10.355L29.8923 10.49L29.8432 10.5837L29.8214 10.6212C26.052 16.6662 21.2299 19.8462 15.4273 19.995L15.0005 20C9.00556 20 4.04026 16.8137 0.179571 10.62C0.0618952 10.4312 0 10.2175 0 10C0 9.78253 0.0618952 9.56883 0.179571 9.38C4.04026 3.18625 9.00556 0 15.0005 0ZM15.0005 6.25C13.9154 6.25 12.8748 6.64509 12.1076 7.34835C11.3403 8.05161 10.9093 9.00544 10.9093 10C10.9093 10.9946 11.3403 11.9484 12.1076 12.6517C12.8748 13.3549 13.9154 13.75 15.0005 13.75C16.0855 13.75 17.1261 13.3549 17.8933 12.6517C18.6606 11.9484 19.0916 10.9946 19.0916 10C19.0916 9.00544 18.6606 8.05161 17.8933 7.34835C17.1261 6.64509 16.0855 6.25 15.0005 6.25Z" fill="#CC5803"/>
</svg>
