<svg width="21" height="17" viewBox="0 0 21 17" fill="none" xmlns="http://www.w3.org/2000/svg">
<path d="M2.16659 16.8334C1.59367 16.8334 1.10339 16.6295 0.695752 16.2219C0.288113 15.8143 0.0839464 15.3236 0.083252 14.75V2.25002C0.083252 1.6771 0.287419 1.18683 0.695752 0.779187C1.10409 0.371548 1.59436 0.167381 2.16659 0.166687H18.8333C19.4062 0.166687 19.8968 0.370854 20.3051 0.779187C20.7135 1.18752 20.9173 1.6778 20.9166 2.25002V14.75C20.9166 15.3229 20.7128 15.8136 20.3051 16.2219C19.8975 16.6302 19.4069 16.834 18.8333 16.8334H2.16659ZM10.4999 9.54169L18.8333 4.33335V2.25002L10.4999 7.45835L2.16659 2.25002V4.33335L10.4999 9.54169Z" fill="#CC5803"/>
</svg>
