<svg width="17" height="17" viewBox="0 0 17 17" fill="none" xmlns="http://www.w3.org/2000/svg">
<path d="M8.50008 8.49996C7.35425 8.49996 6.37335 8.09197 5.55737 7.276C4.7414 6.46003 4.33341 5.47913 4.33341 4.33329C4.33341 3.18746 4.7414 2.20656 5.55737 1.39058C6.37335 0.574612 7.35425 0.166626 8.50008 0.166626C9.64591 0.166626 10.6268 0.574612 11.4428 1.39058C12.2588 2.20656 12.6667 3.18746 12.6667 4.33329C12.6667 5.47913 12.2588 6.46003 11.4428 7.276C10.6268 8.09197 9.64591 8.49996 8.50008 8.49996ZM0.166748 16.8333V13.9166C0.166748 13.3264 0.318832 12.784 0.622998 12.2895C0.927165 11.7951 1.33064 11.4173 1.83341 11.1562C2.9098 10.618 4.00355 10.2145 5.11466 9.94579C6.22578 9.67704 7.35425 9.54232 8.50008 9.54163C9.64591 9.54093 10.7744 9.67565 11.8855 9.94579C12.9966 10.2159 14.0904 10.6194 15.1667 11.1562C15.6702 11.4166 16.074 11.7944 16.3782 12.2895C16.6824 12.7847 16.8341 13.327 16.8334 13.9166V16.8333H0.166748Z" fill="#CC5803"/>
</svg>
