<svg width="100" height="100" viewBox="0 0 100 100" fill="none" xmlns="http://www.w3.org/2000/svg">
<circle cx="50" cy="50" r="50" fill="#101426"/>
<path d="M50.0013 70.8333C61.5072 70.8333 70.8346 61.5059 70.8346 50C70.8346 38.4941 61.5072 29.1667 50.0013 29.1667C38.4954 29.1667 29.168 38.4941 29.168 50C29.168 61.5059 38.4954 70.8333 50.0013 70.8333Z" stroke="white" stroke-width="3" stroke-linecap="round" stroke-linejoin="round"/>
<path d="M50 52.0833C53.4518 52.0833 56.25 49.2851 56.25 45.8333C56.25 42.3816 53.4518 39.5833 50 39.5833C46.5482 39.5833 43.75 42.3816 43.75 45.8333C43.75 49.2851 46.5482 52.0833 50 52.0833Z" stroke="white" stroke-width="3" stroke-linecap="round" stroke-linejoin="round"/>
<path d="M39.582 68.0458V64.5833C39.582 63.4783 40.021 62.4184 40.8024 61.637C41.5838 60.8556 42.6436 60.4167 43.7487 60.4167H56.2487C57.3538 60.4167 58.4136 60.8556 59.195 61.637C59.9764 62.4184 60.4154 63.4783 60.4154 64.5833V68.0458" stroke="white" stroke-width="3" stroke-linecap="round" stroke-linejoin="round"/>
</svg>
