<svg width="129" height="126" viewBox="0 0 129 126" fill="none" xmlns="http://www.w3.org/2000/svg">
<path d="M26.3535 56.6553C29.565 54.8201 31.579 54.5349 35.9151 56.6553L49.4941 70.2219M46.3606 58.8223L60.8235 44.3723M57.6899 55.5309L72.1529 70.2219M83.8033 66.6097L69.0193 81.0598M60.8235 66.6097L46.3606 81.0598C36.799 86.7596 29.5675 73.6739 37.8435 66.6097M69.0193 58.8223L83.8033 44.3723C90.6331 39.636 101.159 48.788 92.2403 58.8223M49.4941 46.7808C39.9326 37.87 49.4941 28.0761 56.2435 32.0095L72.1529 47.3428M69.0193 35.542C73.4265 32.0508 74.2361 29.591 71.3495 23.9016M80.509 55.5309L93.5259 68.4565C97.5418 71.5127 99.6761 71.7623 103.248 69.2591M57.5292 77.7684L72.1529 92.2988C80.6697 97.5976 90.2316 86.1979 80.6697 78.4913M60.8235 89.4893C56.7205 92.3464 55.8271 94.9347 57.5292 101.852" stroke="#CC5803" stroke-width="5.25" stroke-linecap="round" stroke-linejoin="round"/>
<path d="M38.2654 62.8567C37.9202 60.517 39.0188 58.4116 42.2365 59.2498L53.0665 70.0704L61.0087 62.496C63.7359 60.8291 65.4327 60.8868 68.5898 62.496L75.81 70.0704L86.6402 59.6105C90.8991 58.2514 92.1944 60.4583 90.9723 63.578L78.337 75.8414C76.5368 77.3265 75.5573 77.4034 73.6439 75.8414L65.3407 67.5456C64.7771 66.9584 64.4589 67.0007 63.8967 67.5456L55.5935 75.4807C53.5353 77.2678 52.3291 77.2678 50.5394 75.4807L38.2654 62.8567Z" fill="#06080F" stroke="#CC5803" stroke-width="2.25"/>
</svg>
